<?xml version="1.0" encoding="utf-8"?>
<!-- Generator: Adobe Illustrator 25.0.1, SVG Export Plug-In . SVG Version: 6.00 Build 0)  -->
<svg version="1.0" id="Layer_1" xmlns="http://www.w3.org/2000/svg" xmlns:xlink="http://www.w3.org/1999/xlink" x="0px" y="0px"
	 viewBox="0 0 906 215" style="enable-background:new 0 0 906 215;" xml:space="preserve">
<style type="text/css">
	.st0{fill:#75B943;}
	.st1{fill:#1D1E1D;}
	.st2{fill:#FFFFFF;}
	.st3{fill:#FFFFFF;stroke:#FFFFFF;stroke-miterlimit:10;}
</style>
<rect x="601.61" y="-0.13" class="st0" width="306" height="215"/>
<g id="surface1">
	<path class="st0" d="M604.9,214.84H-2.43V0.18h662L604.9,214.84z"/>
	<path class="st1" d="M307.9,0.18l-57.16,214.67h341.99L646.9,0.18H307.9z"/>
	<path class="st2" d="M323.71,65.38V39.35c0-1.81,0.64-3.35,1.9-4.62c1.27-1.27,2.8-1.91,4.61-1.91h24.72v6.93h-21.79
		c-0.54,0-1,0.2-1.38,0.59s-0.57,0.85-0.57,1.37v21.29c0,0.54,0.19,1,0.57,1.37c0.38,0.37,0.84,0.55,1.38,0.55h13.51
		c0.54,0,1-0.18,1.39-0.55c0.38-0.38,0.57-0.83,0.57-1.37v-7.29h-9.33v-6.93h16.93v16.61c0,1.77-0.64,3.29-1.91,4.56
		c-1.28,1.27-2.82,1.9-4.62,1.9h-19.48c-1.8,0-3.34-0.63-4.61-1.9C324.35,68.67,323.71,67.15,323.71,65.38"/>
	<path class="st2" d="M363.69,71.84V32.81h27.34v6.93h-19.75v9.16h15.86v6.93h-15.86v9.08h19.75v6.93"/>
	<path class="st2" d="M396.45,71.84V32.81h27.34v6.93h-19.75v9.16h15.86v6.93h-15.86v16.01"/>
	<path class="st2" d="M436.14,62.98c0,0.54,0.19,1,0.57,1.37c0.38,0.37,0.84,0.55,1.38,0.55h13.52c0.54,0,1-0.18,1.39-0.55
		c0.38-0.38,0.57-0.83,0.57-1.37V41.75c0-0.54-0.19-1.01-0.57-1.41c-0.38-0.4-0.84-0.6-1.39-0.6H438.1c-0.54,0-1,0.2-1.38,0.6
		c-0.38,0.4-0.57,0.87-0.57,1.41V62.98z M428.65,65.38V39.35c0-1.81,0.63-3.35,1.89-4.62c1.27-1.27,2.78-1.91,4.54-1.91h19.5
		c1.76,0,3.29,0.64,4.55,1.91c1.27,1.28,1.91,2.82,1.91,4.62v26.03c0,1.79-0.63,3.31-1.89,4.57c-1.27,1.26-2.79,1.89-4.57,1.89
		h-19.5c-1.79,0-3.3-0.63-4.55-1.89C429.28,68.69,428.65,67.17,428.65,65.38"/>
	<path class="st2" d="M475.47,49.02h12.73c0.54,0,1-0.19,1.38-0.57c0.39-0.38,0.57-0.84,0.57-1.38v-5.3c0-0.54-0.19-1.01-0.57-1.41
		c-0.38-0.4-0.84-0.6-1.38-0.6h-12.73V49.02z M467.98,71.84V32.82h23.39c1.8,0,3.34,0.64,4.6,1.91c1.27,1.28,1.9,2.82,1.9,4.62
		v10.05c0,1.8-0.63,3.35-1.9,4.62c-1.27,1.28-2.8,1.91-4.61,1.91h-0.48l9.55,15.89h-8.16l-9.65-15.89h-7.16v15.89"/>
	<path class="st2" d="M504.77,65.38V39.35c0-1.81,0.63-3.35,1.9-4.62c1.27-1.27,2.8-1.91,4.61-1.91h19.5v6.93h-16.56
		c-0.54,0-1.01,0.2-1.39,0.59c-0.38,0.39-0.57,0.85-0.57,1.37v21.29c0,0.54,0.19,1,0.57,1.37c0.38,0.37,0.84,0.55,1.39,0.55h16.56
		v6.93h-19.5c-1.8,0-3.34-0.63-4.61-1.9C505.4,68.67,504.77,67.15,504.77,65.38"/>
	<path class="st2" d="M537.34,71.84V32.81h27.34v6.93h-19.75v9.16h15.86v6.93h-15.86v9.08h19.75v6.93"/>
	<path class="st2" d="M573.1,36.84h-0.82V35.3h0.82c1,0,1,0.57,1,0.76C574.1,36.25,574.1,36.84,573.1,36.84 M575.19,36.06
		c0-1.14-0.8-1.86-2.09-1.86h-1.91v5.18h1.09v-1.44h0.82c0.05,0,0.1,0,0.15,0l1.05,1.45h1.36l-1.29-1.76
		C574.9,37.29,575.19,36.74,575.19,36.06 M573.21,40.68c-2,0-3.63-1.63-3.63-3.64s1.63-3.63,3.63-3.63s3.63,1.63,3.63,3.63
		S575.21,40.68,573.21,40.68 M573.21,32.82c-2.33,0-4.23,1.89-4.23,4.23s1.9,4.23,4.23,4.23s4.23-1.9,4.23-4.23
		S575.54,32.82,573.21,32.82"/>
	<path class="st2" d="M341.65,118.07h30.51c1.3,0,2.41-0.46,3.32-1.37c0.92-0.91,1.38-2.02,1.38-3.31v-12.72
		c0-1.29-0.46-2.42-1.38-3.38c-0.91-0.96-2.03-1.44-3.32-1.44h-30.51V118.07z M323.72,172.75v-93.5h56.03
		c4.33,0,8.01,1.53,11.04,4.59c3.03,3.05,4.55,6.75,4.55,11.08v24.09c0,4.33-1.52,8.02-4.55,11.08c-3.04,3.05-6.72,4.59-11.05,4.59
		h-1.14l22.89,38.08h-19.54l-23.12-38.08h-17.17v38.08"/>
	<path class="st2" d="M408.39,95.58V79.25h71.75v16.33h-26.77v77.17h-18.21V95.58"/>
	<path class="st2" d="M484.82,172.75l30.99-47.19l-29.18-46.45h21.95l18.47,29.52l18.81-29.52h20.15l-29.52,44.44l31.12,49.2h-21.89
		l-20.35-31.93l-20.55,31.93"/>
	<path class="st2" d="M221.13,167.89v-1.14h0.73c0.4,0,0.95,0.03,0.95,0.52c0,0.53-0.28,0.62-0.75,0.62H221.13 M221.13,168.7h0.49
		l1.14,2h1.25l-1.26-2.09c0.65-0.05,1.19-0.36,1.19-1.23c0-1.09-0.75-1.45-2.03-1.45h-1.84v4.77h1.06V168.7 M226.49,168.33
		c0-2.8-2.17-4.42-4.59-4.42c-2.44,0-4.61,1.62-4.61,4.42c0,2.8,2.18,4.43,4.61,4.43C224.32,172.75,226.49,171.12,226.49,168.33
		 M225.16,168.33c0,2.04-1.5,3.41-3.27,3.41v-0.01c-1.82,0.01-3.29-1.36-3.29-3.39c0-2.04,1.47-3.4,3.29-3.4
		C223.67,164.93,225.16,166.29,225.16,168.33"/>
	<path class="st2" d="M110.83,137.83l0,33.49h9.46v-33.49H110.83z M36.43,137.78v33.54h9.54v-25.46l7.39,0
		c2.45,0,4.2,0.61,5.37,1.87c1.5,1.59,2.11,4.17,2.11,8.87v14.73h9.25v-18.53c0-13.22-8.43-15.01-16.68-15.01H36.43z M126.06,137.83
		v33.49h15.34c8.17,0,10.84-1.36,13.73-4.41c2.04-2.14,3.36-6.84,3.36-11.97c0-4.71-1.11-8.91-3.06-11.52
		c-3.5-4.68-8.55-5.59-16.09-5.59H126.06z M135.44,145.12h4.06c5.9,0,9.71,2.65,9.71,9.52c0,6.88-3.81,9.53-9.71,9.53h-4.06V145.12z
		 M97.2,137.83l-7.89,26.54l-7.56-26.54l-10.21,0l10.8,33.49h13.63l10.89-33.49H97.2z M162.88,171.32h9.46v-33.48l-9.46,0V171.32z
		 M189.4,137.84l-13.21,33.46h9.33l2.09-5.91h15.63l1.97,5.91h10.12l-13.3-33.47L189.4,137.84z M195.54,143.95l5.73,15.68h-11.64"/>
	<path class="st2" d="M61.86,71.16c0,0,12.17-17.96,36.47-19.81v-6.52c-26.91,2.16-50.22,24.96-50.22,24.96s13.2,38.16,50.22,41.65
		v-6.93C71.16,101.09,61.86,71.16,61.86,71.16"/>
	<path class="st2" d="M98.33,90.74v6.34c-20.53-3.66-26.23-25-26.23-25s9.86-10.92,26.23-12.69v6.96c-0.01,0-0.02,0-0.03,0
		c-8.59-1.03-15.3,7-15.3,7S86.75,86.86,98.33,90.74"/>
	<path class="st2" d="M98.33,32.81v12.02c0.79-0.06,1.58-0.11,2.38-0.14c30.6-1.03,50.54,25.1,50.54,25.1s-22.9,27.84-46.75,27.84
		c-2.19,0-4.23-0.21-6.16-0.54v7.43c1.64,0.21,3.35,0.33,5.13,0.33c22.2,0,38.25-11.34,53.8-24.75c2.58,2.07,13.13,7.09,15.3,9.28
		c-14.78,12.38-49.23,22.35-68.75,22.35c-1.88,0-3.69-0.11-5.47-0.29v10.44h84.38V32.81"/>
	<path class="st2" d="M98.33,59.39v-8.05c0.78-0.05,1.57-0.1,2.38-0.12c22-0.69,36.44,18.91,36.44,18.91s-15.59,21.65-32.31,21.65
		c-2.41,0-4.56-0.38-6.5-1.04V66.35c8.57,1.04,10.29,4.82,15.44,13.4l11.46-9.66c0,0-8.36-10.96-22.46-10.96
		C101.23,59.12,99.76,59.23,98.33,59.39"/>
</g>
<g>
	<path class="st3" d="M768.65,113.4c0,32.02-19.46,48.99-43.19,48.99c-24.56,0-41.81-19.04-41.81-47.2
		c0-29.53,18.35-48.85,43.19-48.85C752.22,66.34,768.65,85.8,768.65,113.4z M696.47,114.92c0,19.87,10.76,37.67,29.67,37.67
		c19.04,0,29.81-17.53,29.81-38.64c0-18.49-9.66-37.81-29.67-37.81C706.41,76.14,696.47,94.49,696.47,114.92z"/>
	<path class="st3" d="M784.24,160.87V67.86h13.11l29.81,47.06c6.9,10.9,12.28,20.7,16.7,30.22l0.28-0.14
		c-1.1-12.42-1.38-23.74-1.38-38.23V67.86h11.32v93.01h-12.14l-29.53-47.2c-6.49-10.35-12.7-20.98-17.39-31.05l-0.41,0.14
		c0.69,11.73,0.97,22.91,0.97,38.36v39.74H784.24z"/>
</g>
<g>
</g>
<g>
</g>
<g>
</g>
<g>
</g>
<g>
</g>
<g>
</g>
<g>
</g>
<g>
</g>
<g>
</g>
<g>
</g>
<g>
</g>
<g>
</g>
<g>
</g>
<g>
</g>
<g>
</g>
</svg>
