<?xml version="1.0" encoding="utf-8"?>
<!-- Generator: Adobe Illustrator 25.2.0, SVG Export Plug-In . SVG Version: 6.00 Build 0)  -->
<svg version="1.2" baseProfile="tiny" id="Layer_1" xmlns="http://www.w3.org/2000/svg" xmlns:xlink="http://www.w3.org/1999/xlink"
	 x="0px" y="0px" viewBox="0 0 675 1365" overflow="visible" xml:space="preserve">
<path fill="none" stroke="#EE9CB0" stroke-miterlimit="10" d="M431.71,423.53c-1.76,0.11-4.62,0.27-8.17,0.38
	c-6.7,0.21-8.06-0.01-10.6,0.77c-3.92,1.2-3.97,2.71-8.07,4.59c-2.36,1.08-3.84,1.26-12.22,2.17c-5.45,0.59-10.87,1.53-16.34,1.91
	c-5.84,0.41-9.63,0.36-12,3.2c-1.04,1.25-1.47,2.63-1.66,3.56c-3.32,18.64-2.48,32.37-1.02,41.62c0.57,3.57,3.63,21.7,0.89,34.76
	c-0.17,0.79-0.64,2.93-1.15,5.97c-0.28,1.67-1.58,9.69-1.66,17.62c-0.05,5.4,1.24,12.84,3.83,27.7c0.5,2.88,1.27,7.13,2.17,13.28
	c0.59,4.02,1.01,7.31,1.28,9.45c-0.52,3.62-0.43,6.53-0.26,8.55c0.29,3.26,0.86,4.56,0.13,6.77c-0.77,2.31-1.92,2.45-2.43,4.85
	c-0.48,2.29,0.42,2.86-0.15,4.95c-0.41,1.49-1.13,2.2-2.79,4.24c-1.48,1.82-2.74,3.8-4.21,5.62c-4.31,5.35-8.49,10.81-12.89,16.09
	c-5.78,6.93-6.86,8.58-17.49,21.96c-18.52,23.3-21.63,26.32-32.55,40.21c-24.98,31.79-37.81,53.07-40.72,57.96
	c0,0-7.82,13.11-17.62,36.64c-2.39,5.73-5.45,13.54-6.38,24.13c-0.46,5.27-0.33,10.47,0,12.64c3.63,23.6,85.93,34.57,106.09,37.06
	c24.1,2.98,56.9,5.93,96.32,6.09"/>
<path fill="none" stroke="#8DC640" stroke-miterlimit="10" d="M432.03,19.57c-13.05,26-26.65,72.88-30.25,100.89
	c-7.01,42.29-4.95,53.13-8.51,81.14c-1.92,17.81-11.93,57.11-13.54,91.28c0,1.51,0.06,6.41-2.36,7.51
	c-33.42,0.01-67.42,8.42-111.33,29.92c8.54-2.52,19.83-5.8,33.38-9.62c13.45-3.79,19.14-5.29,26.57-5.88
	c1.86-0.15,6.25-0.48,13.56-1.05c0,0,0,0,0.01,0c6.31-0.58,10.52-0.95,11.57-1.05c11.24-1.05,14.55,1.62,20.31-1.52
	c3.09-1.68,5.23-4.13,5.42-3.92c0.22,0.24-2.86,2.92-5.35,6.55c-0.7,1.02-3.25,4.88-4.97,12.66c-3.02,13.63-0.83,27.11-0.23,30.51
	c1.66,9.36,3.09,17.44,9.27,25.77c4.78,6.45,10.36,10.28,14.01,12.39c-0.26-2.08-0.66-5.38-1.13-9.45
	c-1.22-10.49-1.22-11.48-1.81-14.69c-1.43-7.76-3.26-11.96-2.71-12.2c0.56-0.24,3.12,5.45,7.68,12.43
	c5.21,7.97,10.58,13.9,11.07,13.56c0.5-0.35-5.07-6.46-7.91-16.95c-1.16-4.28-1.38-7.83-1.81-14.92
	c-0.55-8.98,0.08-10.64-0.31-21.06c-0.27-7.31-0.91-15.11-1.04-15.1c-0.19,0.01,0.89,15.81,1.52,19.97
	c0.83,5.53,0.95,4.28,2.08,10.49c1.13,6.23,2.25,16.85,3.89,20.31c0.8,1.69,1.78,3.58,3.22,5.62c8.32,11.71,24.5,17.12,29.05,18.47"
	/>
<path fill="none" stroke="#00AEEF" stroke-miterlimit="10" d="M415.87,385.14c0.4,0.5,0.94,1.28,1.36,2.32
	c0.67,1.66,0.67,3.07,0.67,4.45c0,0.92,0.04,4.84,0,6.15c-0.19,6.59,0.61,7.24,0,11.71c-0.34,2.51-0.83,4.02-1.19,4.96
	c-0.18,0.48-0.94,2.43-2.52,4.74c-0.44,0.64-1.1,1.54-3.04,3.63c-3.35,3.61-5.27,4.39-5.19,5.19c0.13,1.28,5.07,2.54,25.78,2.55"/>
<path fill="none" stroke="#544E4A" stroke-miterlimit="10" d="M447.19,385.14c-0.4,0.5-0.94,1.28-1.36,2.32
	c-0.67,1.66-0.67,3.07-0.67,4.45c0,0.92-0.04,4.84,0,6.15c0.19,6.59-0.61,7.24,0,11.71c0.34,2.51,0.83,4.02,1.19,4.96
	c0.18,0.48,0.94,2.43,2.52,4.74c0.44,0.64,1.1,1.54,3.04,3.63c3.33,3.59,5.27,4.38,5.19,5.19c-0.13,1.26-4.86,2.51-24.83,2.53"/>
<path fill="none" stroke="#544E4A" stroke-miterlimit="10" d="M432.35,423.53c1.76,0.11,4.62,0.27,8.17,0.38
	c6.7,0.21,8.06-0.01,10.6,0.77c3.92,1.2,3.97,2.71,8.07,4.59c2.36,1.08,3.84,1.26,12.22,2.17c5.45,0.59,10.87,1.53,16.34,1.91
	c5.84,0.41,9.63,0.36,12,3.2c1.04,1.25,1.47,2.63,1.66,3.56c3.32,18.64,2.48,32.37,1.02,41.62c-0.57,3.57-3.63,21.7-0.89,34.76
	c0.17,0.79,0.64,2.93,1.15,5.97c0.28,1.67,1.58,9.69,1.66,17.62c0.05,5.4-1.24,12.84-3.83,27.7c-0.5,2.88-1.27,7.13-2.17,13.28
	c-0.59,4.02-1.01,7.31-1.28,9.45c0.52,3.62,0.43,6.53,0.26,8.55c-0.29,3.26-0.86,4.56-0.13,6.77c0.77,2.31,1.92,2.45,2.43,4.85
	c0.48,2.29-0.42,2.86,0.15,4.95c0.41,1.49,1.13,2.2,2.79,4.24c1.48,1.82,2.74,3.8,4.21,5.62c4.31,5.35,8.49,10.81,12.89,16.09
	c5.78,6.93,6.86,8.58,17.49,21.96c18.52,23.3,21.63,26.32,32.55,40.21c24.98,31.79,37.81,53.07,40.72,57.96
	c0,0,7.82,13.11,17.62,36.64c2.39,5.73,5.45,13.54,6.38,24.13c0.46,5.27,0.33,10.47,0,12.64c-3.63,23.6-85.93,34.57-106.09,37.06
	c-24.1,2.98-56.9,5.93-96.32,6.09"/>
<path fill="none" stroke="#544E4A" stroke-miterlimit="10" d="M432.03,19.57c13.05,26,26.65,72.88,30.25,100.89
	c7.01,42.29,4.95,53.13,8.51,81.14c1.92,17.81,11.93,57.11,13.54,91.28c0,1.51-0.06,6.41,2.36,7.51
	c33.42,0.01,67.42,8.42,111.33,29.92c-8.54-2.52-19.83-5.8-33.38-9.62c-13.45-3.79-19.14-5.29-26.57-5.88
	c-1.86-0.15-6.25-0.48-13.56-1.05c0,0,0,0-0.01,0c-6.31-0.58-10.52-0.95-11.57-1.05c-11.24-1.05-14.55,1.62-20.31-1.52
	c-3.09-1.68-5.23-4.13-5.42-3.92c-0.22,0.24,2.86,2.92,5.35,6.55c0.7,1.02,3.25,4.88,4.97,12.66c3.02,13.63,0.83,27.11,0.23,30.51
	c-1.66,9.36-3.09,17.44-9.27,25.77c-4.78,6.45-10.36,10.28-14.01,12.39c0.26-2.08,0.66-5.38,1.13-9.45
	c1.22-10.49,1.22-11.48,1.81-14.69c1.43-7.76,3.26-11.96,2.71-12.2c-0.56-0.24-3.12,5.45-7.68,12.43
	c-5.21,7.97-10.58,13.9-11.07,13.56c-0.5-0.35,5.07-6.46,7.91-16.95c1.16-4.28,1.37-7.83,1.81-14.92
	c0.55-8.98-0.08-10.64,0.31-21.06c0.27-7.31,0.91-15.11,1.04-15.1c0.19,0.01-0.89,15.81-1.52,19.97c-0.83,5.53-0.95,4.28-2.08,10.49
	c-1.13,6.23-2.25,16.85-3.89,20.31c-0.8,1.69-1.78,3.58-3.22,5.62c-8.32,11.71-24.5,17.12-29.05,18.47"/>
<line fill="none" stroke="#544E4A" stroke-miterlimit="10" x1="432.03" y1="3.5" x2="432.03" y2="1362.2"/>
<line fill="none" stroke="#544E4A" stroke-miterlimit="10" x1="110.14" y1="1244.82" x2="110.14" y2="496.89"/>
<line fill="none" stroke="#544E4A" stroke-miterlimit="10" x1="379.72" y1="735.17" x2="408.61" y2="1340.2"/>
<path fill="none" stroke="#F79420" stroke-miterlimit="10" d="M365.6,436.3c-4.22,2.75-10.17,7.25-15.77,14.11
	c-4.68,5.73-6.94,10.44-10.7,18c-8.12,16.32-14.75,28.87-16.33,31.83c-9.63,18.09-10.38,16.29-17.85,31.22
	c-5.53,11.05-10.34,22.45-12.81,28.33c-5.67,13.46-6.85,17.62-11.6,25.16c-5.39,8.56-6.11,6.76-12.27,16.39
	c-6.01,9.4-6.2,12.48-13.55,24.01c-4.04,6.33-4.14,5.65-7.77,11.58c-2.27,3.71-3.18,5.53-10.22,19.05
	c-2.73,5.25-4.91,9.86-8.17,15.81c-3.06,5.59-5.86,10.34-7.33,12.82c-2.94,4.98-4.41,7.47-5.86,9.67
	c-8.86,13.52-15.71,17.22-14.19,21.35c0.42,1.14,1.09,1.26,6.89,4.85c4.11,2.54,7.41,4.73,9.62,6.22"/>
<path fill="none" stroke="#544E4A" stroke-miterlimit="10" d="M387.23,448.95c-0.15,5.04-0.89,12.46-3.83,20.82
	c-2.45,6.97-5.29,11.36-9.79,18.51c-9.7,15.44-16.96,27.63-18.66,30.52c-10.42,17.64-8.5,17.35-17.35,31.5
	c-6.55,10.48-13.78,20.52-17.5,25.7c-8.53,11.85-11.47,15.02-15.43,23.01c-4.5,9.06-2.58,8.74-7.6,19.02
	c-4.89,10.03-7.42,11.79-13.44,24.07c-3.3,6.75-2.67,6.47-5.84,12.66c-1.98,3.87-3.06,5.59-10.94,18.65
	c-3.06,5.07-5.85,9.33-9.24,15.21c-3.18,5.53-5.77,10.39-7.13,12.94c-2.72,5.11-4.08,7.66-5.21,10.04
	c-6.93,14.61-6.51,22.38-10.83,23.23c-1.19,0.23-1.65-0.27-7.73-3.36c-4.31-2.18-7.9-3.86-10.32-4.97"/>
<line fill="none" stroke="#544E4A" stroke-miterlimit="10" x1="406.12" y1="396.42" x2="190.25" y2="770.32"/>
<path fill="none" stroke="#544E4A" stroke-miterlimit="10" d="M498.46,434.44c4.22,2.75,10.17,7.25,15.77,14.11
	c4.68,5.73,6.94,10.44,10.7,18c8.12,16.32,14.75,28.87,16.33,31.83c9.63,18.09,10.38,16.29,17.85,31.22
	c5.53,11.05,10.34,22.45,12.81,28.33c5.67,13.46,6.85,17.62,11.6,25.16c5.39,8.56,6.11,6.76,12.27,16.39
	c6.01,9.4,6.2,12.48,13.55,24.01c4.04,6.33,4.14,5.65,7.77,11.58c2.27,3.71,3.18,5.53,10.22,19.05c2.73,5.25,4.91,9.86,8.17,15.81
	c3.06,5.59,5.86,10.34,7.33,12.82c2.94,4.98,4.41,7.47,5.86,9.67c8.86,13.52,15.71,17.22,14.19,21.35
	c-0.42,1.14-1.09,1.26-6.89,4.85c-4.11,2.54-7.41,4.73-9.62,6.22"/>
<path fill="none" stroke="#544E4A" stroke-miterlimit="10" d="M476.83,447.09c0.15,5.04,0.89,12.46,3.83,20.82
	c2.45,6.97,5.29,11.36,9.79,18.51c9.7,15.44,16.96,27.63,18.66,30.52c10.42,17.64,8.5,17.35,17.35,31.5
	c6.55,10.48,13.78,20.52,17.5,25.7c8.53,11.85,11.47,15.02,15.43,23.01c4.5,9.06,2.58,8.74,7.6,19.02
	c4.89,10.03,7.42,11.79,13.44,24.07c3.3,6.75,2.67,6.47,5.84,12.66c1.98,3.87,3.06,5.59,10.94,18.65c3.06,5.07,5.85,9.33,9.24,15.21
	c3.18,5.53,5.77,10.39,7.13,12.94c2.72,5.11,4.08,7.66,5.21,10.04c6.93,14.61,6.51,22.38,10.83,23.23c1.19,0.23,1.65-0.27,7.73-3.36
	c4.31-2.18,7.9-3.86,10.32-4.97"/>
<line fill="none" stroke="#544E4A" stroke-miterlimit="10" x1="460.19" y1="393.28" x2="671.56" y2="769.73"/>
<path fill="none" stroke="#544E4A" stroke-miterlimit="10" d="M111.14,549.81c7.27,2.1,16.75,4.87,27.83,8.17
	c40.23,11.98,49.04,15.35,58.28,22.6c5.71,4.47,14.05,12.37,21.32,25.91c-4.57,9.23-11.16,22.21-19.53,37.53
	c-13.51,24.74-22.16,40.57-35.49,58.91c-7.85,10.79-19.4,25.32-35.36,41.18c-0.72,5.12-1.23,9.06-1.53,11.49
	c-0.57,4.57-0.8,6.77-2.34,9.27c-1.46,2.37-3.38,3.84-4.75,4.7c-0.63,143.54-1.26,287.08-1.89,430.62"/>
<path fill="none" stroke="#8299CE" stroke-miterlimit="10" d="M103.61,1200.19c-0.63-143.54-1.26-287.08-1.89-430.62
	c-1.37-0.86-3.29-2.33-4.75-4.7c-1.54-2.5-1.77-4.71-2.34-9.27c-0.3-2.43-0.81-6.37-1.53-11.49
	c-15.96-15.86-27.51-30.39-35.36-41.18c-13.33-18.34-21.98-34.16-35.49-58.91c-8.37-15.32-14.96-28.3-19.53-37.53
	c7.27-13.55,15.61-21.44,21.32-25.91c9.24-7.25,18.05-10.61,58.28-22.6c11.08-3.3,20.55-6.07,27.83-8.17"/>
<path fill="none" stroke="#65C8D0" stroke-miterlimit="10" d="M339.67,776.15c3.06,18.01,4.7,31.97,5.64,41.64
	c0,0,1.9,19.34,4.75,34.76c2.49,13.49,3.39,14.4,7.19,32.14c1.53,7.13,1.64,8.19,8.1,43.76c5.19,28.57,5.73,31.25,6.39,38.25
	c0.47,4.93,1.49,17.11,1.14,32.86c-0.26,11.69-1.18,19.82-1.67,24.86c-2.38,24.85-1.19,45.77-0.02,66.24
	c0.79,13.83,1.99,33.66,6.61,58.99c3.64,19.98,7.91,35.09,9.8,61.99c0.06,0.88,0.22,1.84,0.39,3.46c0.65,6.38,0.51,11.44,0.41,14.17
	c-1.34,37.41-2.95,47.75-2.95,47.75c-0.8,4.76-2.36,11.12,0.64,13.39c1.15,0.87,2.47,0.8,9.83,0.45c3.87-0.19,7.02-0.34,8.27-0.4"/>
<path fill="none" stroke="#544E4A" stroke-miterlimit="10" d="M421.97,771.39c-1.72,18.72-2.11,33.02-2.13,42.85
	c0,0-0.05,19.43-1.42,35.06c-1.2,13.66-2,14.66-4.1,32.68c-0.84,7.24-0.86,8.31-3.9,44.33c-2.44,28.93-2.72,31.65-2.72,38.68
	c0,4.95,0.15,17.18,1.99,32.82c1.37,11.62,3.07,19.62,4.03,24.59c4.74,24.51,5.54,45.45,6.33,65.94
	c0.53,13.84,1.23,33.69-0.96,59.35c-1.72,20.24-4.53,35.68-3.84,62.64c0.02,0.88-0.05,1.85-0.06,3.48
	c-0.04,6.42,0.58,11.43,0.94,14.14c4.9,37.11,7.49,47.25,7.49,47.25c1.25,4.66,3.41,10.84,0.64,13.39
	c-1.07,0.98-2.38,1.03-9.75,1.38c-4.08,0.19-7.24,0.35-8.27,0.4"/>
<line fill="none" stroke="#544E4A" stroke-miterlimit="10" x1="485.19" y1="735.21" x2="458.6" y2="1340.34"/>
<path fill="none" stroke="#544E4A" stroke-miterlimit="10" d="M440.69,772.07c2.09,18.38,2.61,32.52,2.68,42.27
	c0,0,0.16,19.81,1.55,35.05c1.25,13.66,2.06,14.65,4.22,32.67c0.87,7.24,0.89,8.31,4.07,44.31c2.55,28.92,2.84,31.64,2.87,38.67
	c0.02,4.95-0.08,17.18-1.87,32.83c-1.33,11.62-2.99,19.63-3.93,24.6c-4.65,24.53-5.37,45.47-6.08,65.96
	c-0.48,13.85-1.1,33.7,1.18,59.35c1.8,20.23,4.66,35.66,4.08,62.62c-0.02,0.88,0.06,1.85,0.07,3.48c0.06,6.42-0.54,11.44-0.88,14.15
	c-4.76,37.13-7.31,47.28-7.31,47.28c-1.24,4.66-3.36,10.86-0.59,13.39c1.07,0.98,2.38,1.03,9.75,1.35c3.88,0.17,7.03,0.31,8.28,0.36
	"/>
<path fill="none" stroke="#544E4A" stroke-miterlimit="10" d="M524.78,774.11c-4.09,19.09-5.94,33.57-6.87,43.5
	c0,0-1.82,19.32-4.62,34.78c-2.44,13.5-3.33,14.41-7.07,32.17c-1.5,7.14-1.61,8.2-7.94,43.79c-5.08,28.59-5.61,31.27-6.25,38.27
	c-0.45,4.93-1.42,17.12-1.02,32.87c0.3,11.69,1.26,19.82,1.76,24.85c2.48,24.84,1.36,45.77,0.27,66.24
	c-0.74,13.83-1.86,33.66-6.38,59.02c-3.57,19.99-7.77,35.12-9.56,62.02c-0.06,0.88-0.22,1.84-0.38,3.46
	c-0.63,6.39-0.47,11.44-0.36,14.17c1.48,37.4,3.13,47.74,3.13,47.74c0.82,4.75,2.4,11.11-0.59,13.39c-1.15,0.88-2.46,0.81-9.83,0.49
	c-4.03-0.18-7.18-0.32-8.28-0.36"/>
<g>
	<path fill="#8DC640" d="M206.52,203.97c-1.53,2.06-2.65,4.79-2.65,8.59c0,3.74,1.15,6.42,2.65,8.52h-1.45
		c-1.32-1.74-2.75-4.43-2.75-8.52c0.02-4.14,1.43-6.82,2.75-8.59H206.52z"/>
	<path fill="#8DC640" d="M208.48,211.13c0-1.05-0.02-1.91-0.08-2.75h1.62l0.08,1.64h0.06c0.57-0.97,1.51-1.87,3.19-1.87
		c1.39,0,2.44,0.84,2.88,2.04h0.04c0.31-0.57,0.71-1.01,1.13-1.32c0.61-0.46,1.28-0.71,2.25-0.71c1.34,0,3.34,0.88,3.34,4.41v5.98
		h-1.81v-5.75c0-1.95-0.71-3.13-2.2-3.13c-1.05,0-1.87,0.78-2.18,1.68c-0.08,0.25-0.15,0.59-0.15,0.92v6.28h-1.81v-6.09
		c0-1.62-0.71-2.79-2.12-2.79c-1.15,0-1.99,0.92-2.29,1.85c-0.1,0.27-0.15,0.59-0.15,0.9v6.13h-1.81V211.13z"/>
	<path fill="#8DC640" d="M231.62,218.54l-0.15-1.28h-0.06c-0.57,0.8-1.66,1.51-3.11,1.51c-2.06,0-3.11-1.45-3.11-2.92
		c0-2.46,2.18-3.8,6.11-3.78v-0.21c0-0.84-0.23-2.35-2.31-2.35c-0.95,0-1.93,0.29-2.65,0.76l-0.42-1.22c0.84-0.55,2.06-0.9,3.34-0.9
		c3.11,0,3.86,2.12,3.86,4.16v3.8c0,0.88,0.04,1.74,0.17,2.44H231.62z M231.34,213.35c-2.02-0.04-4.3,0.31-4.3,2.29
		c0,1.2,0.8,1.76,1.74,1.76c1.32,0,2.16-0.84,2.46-1.7c0.06-0.19,0.11-0.4,0.11-0.59V213.35z"/>
	<path fill="#8DC640" d="M244.87,208.38c-0.04,0.73-0.08,1.55-0.08,2.79v5.9c0,2.33-0.46,3.76-1.45,4.64
		c-0.99,0.92-2.41,1.22-3.7,1.22c-1.22,0-2.56-0.29-3.38-0.84l0.46-1.41c0.67,0.42,1.72,0.8,2.98,0.8c1.89,0,3.28-0.99,3.28-3.55
		v-1.13h-0.04c-0.57,0.94-1.66,1.7-3.23,1.7c-2.52,0-4.33-2.14-4.33-4.96c0-3.44,2.25-5.4,4.58-5.4c1.76,0,2.73,0.92,3.17,1.76h0.04
		l0.08-1.53H244.87z M242.96,212.39c0-0.31-0.02-0.59-0.11-0.84c-0.34-1.07-1.24-1.95-2.58-1.95c-1.76,0-3.02,1.49-3.02,3.84
		c0,1.99,1.01,3.65,3,3.65c1.13,0,2.16-0.71,2.56-1.89c0.1-0.31,0.15-0.67,0.15-0.99V212.39z"/>
	<path fill="#8DC640" d="M249.78,205.52c0.02,0.63-0.44,1.13-1.18,1.13c-0.65,0-1.11-0.5-1.11-1.13c0-0.65,0.48-1.15,1.16-1.15
		C249.34,204.37,249.78,204.87,249.78,205.52z M247.72,218.54v-10.16h1.85v10.16H247.72z"/>
	<path fill="#8DC640" d="M259.88,218.16c-0.48,0.25-1.55,0.59-2.92,0.59c-3.06,0-5.06-2.08-5.06-5.19c0-3.13,2.14-5.4,5.46-5.4
		c1.09,0,2.06,0.27,2.56,0.52l-0.42,1.43c-0.44-0.25-1.13-0.48-2.14-0.48c-2.33,0-3.59,1.72-3.59,3.84c0,2.35,1.51,3.8,3.53,3.8
		c1.05,0,1.74-0.27,2.27-0.5L259.88,218.16z"/>
	<path fill="#8DC640" d="M264.1,205.52c0.02,0.63-0.44,1.13-1.18,1.13c-0.65,0-1.11-0.5-1.11-1.13c0-0.65,0.48-1.15,1.16-1.15
		C263.66,204.37,264.1,204.87,264.1,205.52z M262.05,218.54v-10.16h1.85v10.16H262.05z"/>
	<path fill="#8DC640" d="M272.59,218.54l-0.15-1.28h-0.06c-0.57,0.8-1.66,1.51-3.11,1.51c-2.06,0-3.11-1.45-3.11-2.92
		c0-2.46,2.18-3.8,6.11-3.78v-0.21c0-0.84-0.23-2.35-2.31-2.35c-0.95,0-1.93,0.29-2.65,0.76l-0.42-1.22c0.84-0.55,2.06-0.9,3.34-0.9
		c3.11,0,3.86,2.12,3.86,4.16v3.8c0,0.88,0.04,1.74,0.17,2.44H272.59z M272.31,213.35c-2.02-0.04-4.3,0.31-4.3,2.29
		c0,1.2,0.8,1.76,1.74,1.76c1.32,0,2.16-0.84,2.46-1.7c0.06-0.19,0.11-0.4,0.11-0.59V213.35z"/>
	<path fill="#8DC640" d="M277.08,211.13c0-1.05-0.02-1.91-0.08-2.75h1.64l0.11,1.68h0.04c0.5-0.97,1.68-1.91,3.36-1.91
		c1.41,0,3.59,0.84,3.59,4.33v6.07h-1.85v-5.86c0-1.64-0.61-3-2.35-3c-1.22,0-2.16,0.86-2.48,1.89c-0.08,0.23-0.12,0.55-0.12,0.86
		v6.11h-1.85V211.13z"/>
	<path fill="#8DC640" d="M287.62,221.08c1.49-2.08,2.65-4.81,2.65-8.59c0-3.76-1.13-6.45-2.65-8.52h1.43
		c1.34,1.72,2.75,4.41,2.75,8.55c0,4.12-1.41,6.78-2.75,8.57H287.62z"/>
	<path fill="#8DC640" d="M294.7,211.69c0-1.3-0.04-2.35-0.08-3.32h1.66l0.08,1.74h0.04c0.76-1.24,1.95-1.97,3.61-1.97
		c2.46,0,4.3,2.08,4.3,5.17c0,3.65-2.22,5.46-4.62,5.46c-1.34,0-2.52-0.59-3.13-1.6h-0.04v5.52h-1.83V211.69z M296.53,214.4
		c0,0.27,0.04,0.52,0.08,0.76c0.34,1.28,1.45,2.16,2.77,2.16c1.95,0,3.09-1.6,3.09-3.93c0-2.04-1.07-3.78-3.02-3.78
		c-1.26,0-2.44,0.9-2.79,2.29c-0.06,0.23-0.13,0.5-0.13,0.76V214.4z"/>
	<path fill="#8DC640" d="M312.28,218.54l-0.15-1.28h-0.06c-0.57,0.8-1.66,1.51-3.11,1.51c-2.06,0-3.11-1.45-3.11-2.92
		c0-2.46,2.18-3.8,6.11-3.78v-0.21c0-0.84-0.23-2.35-2.31-2.35c-0.95,0-1.93,0.29-2.65,0.76l-0.42-1.22c0.84-0.55,2.06-0.9,3.34-0.9
		c3.11,0,3.86,2.12,3.86,4.16v3.8c0,0.88,0.04,1.74,0.17,2.44H312.28z M312,213.35c-2.02-0.04-4.3,0.31-4.3,2.29
		c0,1.2,0.8,1.76,1.74,1.76c1.32,0,2.16-0.84,2.46-1.7c0.06-0.19,0.11-0.4,0.11-0.59V213.35z"/>
	<path fill="#8DC640" d="M318.91,205.46v2.92h2.65v1.41h-2.65v5.48c0,1.26,0.36,1.97,1.39,1.97c0.48,0,0.84-0.06,1.07-0.13
		l0.08,1.39c-0.36,0.15-0.92,0.25-1.64,0.25c-0.86,0-1.55-0.27-2-0.78c-0.52-0.55-0.71-1.45-0.71-2.65v-5.54h-1.58v-1.41h1.58v-2.44
		L318.91,205.46z"/>
	<path fill="#8DC640" d="M323.64,203.63h1.85v6.34h0.04c0.29-0.52,0.76-0.99,1.32-1.3c0.55-0.31,1.2-0.52,1.89-0.52
		c1.37,0,3.55,0.84,3.55,4.35v6.05h-1.85v-5.84c0-1.64-0.61-3.02-2.35-3.02c-1.2,0-2.14,0.84-2.48,1.85
		c-0.1,0.25-0.12,0.52-0.12,0.88v6.13h-1.85V203.63z"/>
	<path fill="#8DC640" d="M335.48,220.89v-16.73h3.84v1.15h-2.41v14.42h2.41v1.15H335.48z"/>
	<path fill="#8DC640" d="M344.68,206.61h-0.04l-2.37,1.28l-0.36-1.41l2.98-1.6h1.58v13.65h-1.79V206.61z"/>
	<path fill="#8DC640" d="M351.88,216.42c0.53,0.34,1.74,0.86,3.02,0.86c2.37,0,3.11-1.51,3.09-2.65c-0.02-1.91-1.74-2.73-3.53-2.73
		h-1.03v-1.39h1.03c1.34,0,3.04-0.69,3.04-2.31c0-1.09-0.69-2.06-2.39-2.06c-1.09,0-2.14,0.48-2.73,0.9l-0.48-1.34
		c0.71-0.52,2.1-1.05,3.57-1.05c2.69,0,3.91,1.6,3.91,3.25c0,1.41-0.84,2.6-2.52,3.21v0.04c1.68,0.34,3.04,1.6,3.04,3.51
		c0,2.18-1.7,4.09-4.98,4.09c-1.53,0-2.88-0.48-3.55-0.92L351.88,216.42z"/>
	<path fill="#8DC640" d="M365.51,204.14v16.75h-3.84v-1.15h2.42v-14.45h-2.42v-1.15H365.51z"/>
</g>
<g>
	<path fill="#F79420" d="M180.83,505.96c-1.53,2.06-2.65,4.79-2.65,8.59c0,3.74,1.15,6.42,2.65,8.52h-1.45
		c-1.32-1.74-2.75-4.43-2.75-8.52c0.02-4.14,1.43-6.82,2.75-8.59H180.83z"/>
	<path fill="#F79420" d="M182.78,505.63h1.85v6.34h0.04c0.29-0.52,0.76-0.99,1.32-1.3c0.55-0.31,1.2-0.52,1.89-0.52
		c1.36,0,3.55,0.84,3.55,4.35v6.05h-1.85v-5.84c0-1.64-0.61-3.02-2.35-3.02c-1.2,0-2.14,0.84-2.48,1.85
		c-0.1,0.25-0.13,0.52-0.13,0.88v6.13h-1.85V505.63z"/>
	<path fill="#F79420" d="M200.06,520.53l-0.15-1.28h-0.06c-0.57,0.8-1.66,1.51-3.11,1.51c-2.06,0-3.11-1.45-3.11-2.92
		c0-2.46,2.18-3.8,6.11-3.78v-0.21c0-0.84-0.23-2.35-2.31-2.35c-0.94,0-1.93,0.29-2.65,0.76l-0.42-1.22c0.84-0.55,2.06-0.9,3.34-0.9
		c3.11,0,3.86,2.12,3.86,4.16v3.8c0,0.88,0.04,1.74,0.17,2.44H200.06z M199.79,515.35c-2.02-0.04-4.3,0.31-4.3,2.29
		c0,1.2,0.8,1.76,1.74,1.76c1.32,0,2.16-0.84,2.46-1.7c0.06-0.19,0.1-0.4,0.1-0.59V515.35z"/>
	<path fill="#F79420" d="M204.56,513.12c0-1.05-0.02-1.91-0.08-2.75h1.64l0.1,1.68h0.04c0.5-0.97,1.68-1.91,3.36-1.91
		c1.41,0,3.59,0.84,3.59,4.33v6.07h-1.85v-5.86c0-1.64-0.61-3-2.35-3c-1.22,0-2.16,0.86-2.48,1.89c-0.08,0.23-0.13,0.55-0.13,0.86
		v6.11h-1.85V513.12z"/>
	<path fill="#F79420" d="M224.99,505.63v12.28c0,0.9,0.02,1.93,0.08,2.62h-1.66l-0.08-1.76h-0.04c-0.57,1.13-1.81,1.99-3.46,1.99
		c-2.46,0-4.35-2.08-4.35-5.17c-0.02-3.38,2.08-5.46,4.56-5.46c1.55,0,2.6,0.73,3.07,1.55h0.04v-6.07H224.99z M223.14,514.51
		c0-0.23-0.02-0.55-0.08-0.78c-0.27-1.18-1.28-2.14-2.67-2.14c-1.91,0-3.04,1.68-3.04,3.93c0,2.06,1.01,3.76,3,3.76
		c1.24,0,2.37-0.82,2.71-2.2c0.06-0.25,0.08-0.5,0.08-0.8V514.51z"/>
	<path fill="#F79420" d="M226.94,523.07c1.49-2.08,2.65-4.81,2.65-8.59c0-3.76-1.13-6.45-2.65-8.52h1.43
		c1.34,1.72,2.75,4.41,2.75,8.55c0,4.12-1.41,6.78-2.75,8.57H226.94z"/>
	<path fill="#F79420" d="M234.02,513.69c0-1.3-0.04-2.35-0.08-3.32h1.66l0.08,1.74h0.04c0.76-1.24,1.95-1.97,3.61-1.97
		c2.46,0,4.3,2.08,4.3,5.17c0,3.65-2.22,5.46-4.62,5.46c-1.34,0-2.52-0.59-3.13-1.6h-0.04v5.52h-1.83V513.69z M235.85,516.4
		c0,0.27,0.04,0.52,0.08,0.76c0.34,1.28,1.45,2.16,2.77,2.16c1.95,0,3.09-1.6,3.09-3.93c0-2.04-1.07-3.78-3.02-3.78
		c-1.26,0-2.44,0.9-2.79,2.29c-0.06,0.23-0.13,0.5-0.13,0.76V516.4z"/>
	<path fill="#F79420" d="M251.59,520.53l-0.15-1.28h-0.06c-0.57,0.8-1.66,1.51-3.11,1.51c-2.06,0-3.11-1.45-3.11-2.92
		c0-2.46,2.18-3.8,6.11-3.78v-0.21c0-0.84-0.23-2.35-2.31-2.35c-0.94,0-1.93,0.29-2.65,0.76l-0.42-1.22c0.84-0.55,2.06-0.9,3.34-0.9
		c3.11,0,3.86,2.12,3.86,4.16v3.8c0,0.88,0.04,1.74,0.17,2.44H251.59z M251.32,515.35c-2.02-0.04-4.3,0.31-4.3,2.29
		c0,1.2,0.8,1.76,1.74,1.76c1.32,0,2.16-0.84,2.46-1.7c0.06-0.19,0.1-0.4,0.1-0.59V515.35z"/>
	<path fill="#F79420" d="M258.23,507.45v2.92h2.65v1.41h-2.65v5.48c0,1.26,0.36,1.97,1.39,1.97c0.48,0,0.84-0.06,1.07-0.13
		l0.08,1.39c-0.36,0.15-0.92,0.25-1.64,0.25c-0.86,0-1.55-0.27-2-0.78c-0.52-0.55-0.71-1.45-0.71-2.65v-5.54h-1.58v-1.41h1.58v-2.44
		L258.23,507.45z"/>
	<path fill="#F79420" d="M262.96,505.63h1.85v6.34h0.04c0.29-0.52,0.76-0.99,1.32-1.3c0.55-0.31,1.2-0.52,1.89-0.52
		c1.37,0,3.55,0.84,3.55,4.35v6.05h-1.85v-5.84c0-1.64-0.61-3.02-2.35-3.02c-1.2,0-2.14,0.84-2.48,1.85
		c-0.1,0.25-0.12,0.52-0.12,0.88v6.13h-1.85V505.63z"/>
	<path fill="#F79420" d="M274.8,522.88v-16.73h3.84v1.15h-2.42v14.42h2.42v1.15H274.8z"/>
	<path fill="#F79420" d="M284,508.61h-0.04l-2.37,1.28l-0.36-1.41l2.98-1.6h1.57v13.65H284V508.61z"/>
	<path fill="#F79420" d="M290.59,517.07c0-1.72,1.03-2.94,2.71-3.65l-0.02-0.06c-1.51-0.71-2.16-1.89-2.16-3.07
		c0-2.16,1.83-3.63,4.22-3.63c2.64,0,3.97,1.66,3.97,3.36c0,1.15-0.57,2.39-2.25,3.19v0.06c1.7,0.67,2.75,1.87,2.75,3.53
		c0,2.37-2.04,3.97-4.64,3.97C292.32,520.76,290.59,519.06,290.59,517.07z M297.94,516.98c0-1.66-1.16-2.46-3-2.98
		c-1.6,0.46-2.46,1.51-2.46,2.81c-0.06,1.39,0.99,2.6,2.73,2.6C296.87,519.42,297.94,518.39,297.94,516.98z M292.86,510.16
		c0,1.36,1.03,2.1,2.6,2.52c1.18-0.4,2.08-1.24,2.08-2.48c0-1.09-0.65-2.23-2.31-2.23C293.7,507.98,292.86,508.99,292.86,510.16z"/>
	<path fill="#F79420" d="M304.83,506.13v16.75h-3.84v-1.15h2.42v-14.45h-2.42v-1.15H304.83z"/>
</g>
<g>
	<path fill="#00AEEF" d="M115.68,394.36c-1.53,2.06-2.65,4.79-2.65,8.59c0,3.74,1.15,6.42,2.65,8.52h-1.45
		c-1.32-1.74-2.75-4.43-2.75-8.52c0.02-4.14,1.43-6.82,2.75-8.59H115.68z"/>
	<path fill="#00AEEF" d="M117.64,401.52c0-1.05-0.02-1.91-0.08-2.75h1.62l0.08,1.64h0.06c0.57-0.97,1.51-1.87,3.19-1.87
		c1.39,0,2.44,0.84,2.88,2.04h0.04c0.31-0.57,0.71-1.01,1.13-1.32c0.61-0.46,1.28-0.71,2.25-0.71c1.34,0,3.34,0.88,3.34,4.41v5.98
		h-1.81v-5.75c0-1.95-0.71-3.13-2.2-3.13c-1.05,0-1.87,0.78-2.18,1.68c-0.08,0.25-0.15,0.59-0.15,0.92v6.28H124v-6.09
		c0-1.62-0.71-2.79-2.12-2.79c-1.15,0-1.99,0.92-2.29,1.85c-0.1,0.27-0.15,0.59-0.15,0.9v6.13h-1.81V401.52z"/>
	<path fill="#00AEEF" d="M140.78,408.93l-0.15-1.28h-0.06c-0.57,0.8-1.66,1.51-3.11,1.51c-2.06,0-3.11-1.45-3.11-2.92
		c0-2.46,2.18-3.8,6.11-3.78v-0.21c0-0.84-0.23-2.35-2.31-2.35c-0.94,0-1.93,0.29-2.65,0.76l-0.42-1.22c0.84-0.55,2.06-0.9,3.34-0.9
		c3.11,0,3.86,2.12,3.86,4.16v3.8c0,0.88,0.04,1.74,0.17,2.44H140.78z M140.5,403.74c-2.02-0.04-4.3,0.31-4.3,2.29
		c0,1.2,0.8,1.76,1.74,1.76c1.32,0,2.16-0.84,2.46-1.7c0.06-0.19,0.1-0.4,0.1-0.59V403.74z"/>
	<path fill="#00AEEF" d="M154.03,398.77c-0.04,0.73-0.08,1.55-0.08,2.79v5.9c0,2.33-0.46,3.76-1.45,4.64
		c-0.99,0.92-2.42,1.22-3.7,1.22c-1.22,0-2.56-0.29-3.38-0.84l0.46-1.41c0.67,0.42,1.72,0.8,2.98,0.8c1.89,0,3.28-0.99,3.28-3.55
		v-1.13h-0.04c-0.57,0.94-1.66,1.7-3.23,1.7c-2.52,0-4.33-2.14-4.33-4.96c0-3.44,2.25-5.4,4.58-5.4c1.76,0,2.73,0.92,3.17,1.76h0.04
		l0.08-1.53H154.03z M152.12,402.78c0-0.31-0.02-0.59-0.11-0.84c-0.34-1.07-1.24-1.95-2.58-1.95c-1.76,0-3.02,1.49-3.02,3.84
		c0,1.99,1.01,3.65,3,3.65c1.13,0,2.16-0.71,2.56-1.89c0.1-0.31,0.15-0.67,0.15-0.99V402.78z"/>
	<path fill="#00AEEF" d="M158.94,395.91c0.02,0.63-0.44,1.13-1.18,1.13c-0.65,0-1.11-0.5-1.11-1.13c0-0.65,0.48-1.15,1.15-1.15
		C158.5,394.76,158.94,395.26,158.94,395.91z M156.88,408.93v-10.16h1.85v10.16H156.88z"/>
	<path fill="#00AEEF" d="M169.04,408.55c-0.48,0.25-1.55,0.59-2.92,0.59c-3.07,0-5.06-2.08-5.06-5.19c0-3.13,2.14-5.4,5.46-5.4
		c1.09,0,2.06,0.27,2.56,0.52l-0.42,1.43c-0.44-0.25-1.13-0.48-2.14-0.48c-2.33,0-3.59,1.72-3.59,3.84c0,2.35,1.51,3.8,3.53,3.8
		c1.05,0,1.74-0.27,2.27-0.5L169.04,408.55z"/>
	<path fill="#00AEEF" d="M173.26,395.91c0.02,0.63-0.44,1.13-1.18,1.13c-0.65,0-1.11-0.5-1.11-1.13c0-0.65,0.48-1.15,1.15-1.15
		C172.82,394.76,173.26,395.26,173.26,395.91z M171.21,408.93v-10.16h1.85v10.16H171.21z"/>
	<path fill="#00AEEF" d="M181.75,408.93l-0.15-1.28h-0.06c-0.57,0.8-1.66,1.51-3.11,1.51c-2.06,0-3.11-1.45-3.11-2.92
		c0-2.46,2.18-3.8,6.11-3.78v-0.21c0-0.84-0.23-2.35-2.31-2.35c-0.94,0-1.93,0.29-2.65,0.76l-0.42-1.22c0.84-0.55,2.06-0.9,3.34-0.9
		c3.11,0,3.86,2.12,3.86,4.16v3.8c0,0.88,0.04,1.74,0.17,2.44H181.75z M181.47,403.74c-2.02-0.04-4.3,0.31-4.3,2.29
		c0,1.2,0.8,1.76,1.74,1.76c1.32,0,2.16-0.84,2.46-1.7c0.06-0.19,0.1-0.4,0.1-0.59V403.74z"/>
	<path fill="#00AEEF" d="M186.24,401.52c0-1.05-0.02-1.91-0.08-2.75h1.64l0.1,1.68h0.04c0.5-0.97,1.68-1.91,3.36-1.91
		c1.41,0,3.59,0.84,3.59,4.33v6.07h-1.85v-5.86c0-1.64-0.61-3-2.35-3c-1.22,0-2.16,0.86-2.48,1.89c-0.08,0.23-0.13,0.55-0.13,0.86
		v6.11h-1.85V401.52z"/>
	<path fill="#00AEEF" d="M206.86,410.5v1.05h-10.5v-1.05H206.86z"/>
	<path fill="#00AEEF" d="M208.4,401.52c0-1.05-0.02-1.91-0.08-2.75h1.64l0.11,1.68h0.04c0.5-0.97,1.68-1.91,3.36-1.91
		c1.41,0,3.59,0.84,3.59,4.33v6.07h-1.85v-5.86c0-1.64-0.61-3-2.35-3c-1.22,0-2.16,0.86-2.48,1.89c-0.08,0.23-0.12,0.55-0.12,0.86
		v6.11h-1.85V401.52z"/>
	<path fill="#00AEEF" d="M221.08,404.18c0.04,2.5,1.64,3.53,3.49,3.53c1.32,0,2.12-0.23,2.81-0.52l0.31,1.32
		c-0.65,0.29-1.76,0.63-3.38,0.63c-3.13,0-5-2.06-5-5.12s1.81-5.48,4.77-5.48c3.32,0,4.2,2.92,4.2,4.79c0,0.38-0.04,0.67-0.06,0.86
		H221.08z M226.5,402.86c0.02-1.18-0.48-3-2.56-3c-1.87,0-2.69,1.72-2.83,3H226.5z"/>
	<path fill="#00AEEF" d="M237.82,408.55c-0.48,0.25-1.55,0.59-2.92,0.59c-3.06,0-5.06-2.08-5.06-5.19c0-3.13,2.14-5.4,5.46-5.4
		c1.09,0,2.06,0.27,2.56,0.52l-0.42,1.43c-0.44-0.25-1.13-0.48-2.14-0.48c-2.33,0-3.59,1.72-3.59,3.84c0,2.35,1.51,3.8,3.53,3.8
		c1.05,0,1.74-0.27,2.27-0.5L237.82,408.55z"/>
	<path fill="#00AEEF" d="M241.81,403.43h0.04c0.25-0.36,0.61-0.8,0.9-1.15l2.98-3.51h2.23l-3.93,4.18l4.47,5.98h-2.25l-3.51-4.87
		l-0.95,1.05v3.82h-1.83v-14.91h1.83V403.43z"/>
	<path fill="#00AEEF" d="M248.72,411.47c1.49-2.08,2.65-4.81,2.65-8.59c0-3.76-1.13-6.45-2.65-8.52h1.43
		c1.34,1.72,2.75,4.41,2.75,8.55c0,4.12-1.41,6.78-2.75,8.57H248.72z"/>
	<path fill="#00AEEF" d="M260.24,402.08c0-1.3-0.04-2.35-0.08-3.32h1.66l0.08,1.74h0.04c0.76-1.24,1.95-1.97,3.61-1.97
		c2.46,0,4.3,2.08,4.3,5.17c0,3.65-2.23,5.46-4.62,5.46c-1.34,0-2.52-0.59-3.13-1.6h-0.04v5.52h-1.83V402.08z M262.07,404.79
		c0,0.27,0.04,0.52,0.08,0.76c0.34,1.28,1.45,2.16,2.77,2.16c1.95,0,3.09-1.6,3.09-3.93c0-2.04-1.07-3.78-3.02-3.78
		c-1.26,0-2.44,0.9-2.79,2.29c-0.06,0.23-0.13,0.5-0.13,0.76V404.79z"/>
	<path fill="#00AEEF" d="M277.82,408.93l-0.15-1.28h-0.06c-0.57,0.8-1.66,1.51-3.11,1.51c-2.06,0-3.11-1.45-3.11-2.92
		c0-2.46,2.18-3.8,6.11-3.78v-0.21c0-0.84-0.23-2.35-2.31-2.35c-0.95,0-1.93,0.29-2.65,0.76l-0.42-1.22c0.84-0.55,2.06-0.9,3.34-0.9
		c3.11,0,3.86,2.12,3.86,4.16v3.8c0,0.88,0.04,1.74,0.17,2.44H277.82z M277.55,403.74c-2.02-0.04-4.3,0.31-4.3,2.29
		c0,1.2,0.8,1.76,1.74,1.76c1.32,0,2.16-0.84,2.46-1.7c0.06-0.19,0.11-0.4,0.11-0.59V403.74z"/>
	<path fill="#00AEEF" d="M284.46,395.85v2.92h2.64v1.41h-2.64v5.48c0,1.26,0.36,1.97,1.38,1.97c0.48,0,0.84-0.06,1.07-0.13
		l0.08,1.39c-0.36,0.15-0.92,0.25-1.64,0.25c-0.86,0-1.55-0.27-1.99-0.78c-0.53-0.55-0.71-1.45-0.71-2.65v-5.54h-1.57v-1.41h1.57
		v-2.44L284.46,395.85z"/>
	<path fill="#00AEEF" d="M289.18,394.02h1.85v6.34h0.04c0.29-0.52,0.76-0.99,1.32-1.3c0.55-0.31,1.2-0.52,1.89-0.52
		c1.36,0,3.55,0.84,3.55,4.35v6.05h-1.85v-5.84c0-1.64-0.61-3.02-2.35-3.02c-1.2,0-2.14,0.84-2.48,1.85
		c-0.11,0.25-0.13,0.52-0.13,0.88v6.13h-1.85V394.02z"/>
	<path fill="#00AEEF" d="M301.03,411.28v-16.73h3.84v1.15h-2.41v14.42h2.41v1.15H301.03z"/>
	<path fill="#00AEEF" d="M310.22,397h-0.04l-2.37,1.28l-0.36-1.41l2.98-1.6h1.58v13.65h-1.79V397z"/>
	<path fill="#00AEEF" d="M322.7,408.93v-3.72h-6.34v-1.22l6.09-8.71h2v8.48h1.91v1.45h-1.91v3.72H322.7z M322.7,403.76v-4.56
		c0-0.71,0.02-1.43,0.06-2.14h-0.06c-0.42,0.8-0.76,1.39-1.13,2.02l-3.34,4.64v0.04H322.7z"/>
	<path fill="#00AEEF" d="M331.06,394.53v16.75h-3.84v-1.15h2.41v-14.45h-2.41v-1.15H331.06z"/>
</g>
<g>
	<path fill="#8299CE" d="M131.81,1023.11c-1.53,2.06-2.65,4.79-2.65,8.59c0,3.74,1.15,6.42,2.65,8.52h-1.45
		c-1.32-1.74-2.75-4.43-2.75-8.52c0.02-4.14,1.43-6.82,2.75-8.59H131.81z"/>
	<path fill="#8299CE" d="M133.76,1030.27c0-1.05-0.02-1.91-0.08-2.75h1.62l0.08,1.64h0.06c0.57-0.97,1.51-1.87,3.19-1.87
		c1.39,0,2.44,0.84,2.88,2.04h0.04c0.31-0.57,0.71-1.01,1.13-1.32c0.61-0.46,1.28-0.71,2.25-0.71c1.34,0,3.34,0.88,3.34,4.41v5.98
		h-1.81v-5.75c0-1.95-0.71-3.13-2.2-3.13c-1.05,0-1.87,0.78-2.18,1.68c-0.08,0.25-0.15,0.59-0.15,0.92v6.28h-1.81v-6.09
		c0-1.62-0.71-2.79-2.12-2.79c-1.15,0-1.99,0.92-2.29,1.85c-0.1,0.27-0.15,0.59-0.15,0.9v6.13h-1.81V1030.27z"/>
	<path fill="#8299CE" d="M156.9,1037.68l-0.15-1.28h-0.06c-0.57,0.8-1.66,1.51-3.11,1.51c-2.06,0-3.11-1.45-3.11-2.92
		c0-2.46,2.18-3.8,6.11-3.78V1031c0-0.84-0.23-2.35-2.31-2.35c-0.94,0-1.93,0.29-2.65,0.76l-0.42-1.22c0.84-0.55,2.06-0.9,3.34-0.9
		c3.11,0,3.86,2.12,3.86,4.16v3.8c0,0.88,0.04,1.74,0.17,2.44H156.9z M156.63,1032.5c-2.02-0.04-4.3,0.32-4.3,2.29
		c0,1.2,0.8,1.76,1.74,1.76c1.32,0,2.16-0.84,2.46-1.7c0.06-0.19,0.1-0.4,0.1-0.59V1032.5z"/>
	<path fill="#8299CE" d="M170.15,1027.52c-0.04,0.74-0.08,1.55-0.08,2.79v5.9c0,2.33-0.46,3.76-1.45,4.64
		c-0.99,0.92-2.41,1.22-3.7,1.22c-1.22,0-2.56-0.29-3.38-0.84l0.46-1.41c0.67,0.42,1.72,0.8,2.98,0.8c1.89,0,3.28-0.99,3.28-3.55
		v-1.13h-0.04c-0.57,0.95-1.66,1.7-3.23,1.7c-2.52,0-4.33-2.14-4.33-4.96c0-3.44,2.25-5.4,4.58-5.4c1.76,0,2.73,0.92,3.17,1.76h0.04
		l0.08-1.53H170.15z M168.24,1031.53c0-0.32-0.02-0.59-0.1-0.84c-0.34-1.07-1.24-1.95-2.58-1.95c-1.76,0-3.02,1.49-3.02,3.84
		c0,2,1.01,3.65,3,3.65c1.13,0,2.16-0.71,2.56-1.89c0.1-0.31,0.15-0.67,0.15-0.99V1031.53z"/>
	<path fill="#8299CE" d="M175.07,1024.66c0.02,0.63-0.44,1.13-1.18,1.13c-0.65,0-1.11-0.5-1.11-1.13c0-0.65,0.48-1.16,1.15-1.16
		C174.63,1023.51,175.07,1024.01,175.07,1024.66z M173.01,1037.68v-10.16h1.85v10.16H173.01z"/>
	<path fill="#8299CE" d="M185.17,1037.3c-0.48,0.25-1.55,0.59-2.92,0.59c-3.07,0-5.06-2.08-5.06-5.19c0-3.13,2.14-5.4,5.46-5.4
		c1.09,0,2.06,0.27,2.56,0.53l-0.42,1.43c-0.44-0.25-1.13-0.48-2.14-0.48c-2.33,0-3.59,1.72-3.59,3.84c0,2.35,1.51,3.8,3.53,3.8
		c1.05,0,1.74-0.27,2.27-0.5L185.17,1037.3z"/>
	<path fill="#8299CE" d="M189.39,1024.66c0.02,0.63-0.44,1.13-1.18,1.13c-0.65,0-1.11-0.5-1.11-1.13c0-0.65,0.48-1.16,1.15-1.16
		C188.95,1023.51,189.39,1024.01,189.39,1024.66z M187.33,1037.68v-10.16h1.85v10.16H187.33z"/>
	<path fill="#8299CE" d="M197.87,1037.68l-0.15-1.28h-0.06c-0.57,0.8-1.66,1.51-3.11,1.51c-2.06,0-3.11-1.45-3.11-2.92
		c0-2.46,2.18-3.8,6.11-3.78V1031c0-0.84-0.23-2.35-2.31-2.35c-0.94,0-1.93,0.29-2.65,0.76l-0.42-1.22c0.84-0.55,2.06-0.9,3.34-0.9
		c3.11,0,3.86,2.12,3.86,4.16v3.8c0,0.88,0.04,1.74,0.17,2.44H197.87z M197.6,1032.5c-2.02-0.04-4.3,0.32-4.3,2.29
		c0,1.2,0.8,1.76,1.74,1.76c1.32,0,2.16-0.84,2.46-1.7c0.06-0.19,0.1-0.4,0.1-0.59V1032.5z"/>
	<path fill="#8299CE" d="M202.37,1030.27c0-1.05-0.02-1.91-0.08-2.75h1.64l0.1,1.68h0.04c0.5-0.97,1.68-1.91,3.36-1.91
		c1.41,0,3.59,0.84,3.59,4.33v6.07h-1.85v-5.86c0-1.64-0.61-3-2.35-3c-1.22,0-2.16,0.86-2.48,1.89c-0.08,0.23-0.13,0.55-0.13,0.86
		v6.11h-1.85V1030.27z"/>
	<path fill="#8299CE" d="M222.99,1039.26v1.05h-10.5v-1.05H222.99z"/>
	<path fill="#8299CE" d="M224.52,1022.77h1.85v6.34h0.04c0.29-0.52,0.76-0.99,1.32-1.3c0.55-0.31,1.2-0.53,1.89-0.53
		c1.36,0,3.55,0.84,3.55,4.35v6.05h-1.85v-5.84c0-1.64-0.61-3.02-2.35-3.02c-1.2,0-2.14,0.84-2.48,1.85
		c-0.1,0.25-0.13,0.53-0.13,0.88v6.13h-1.85V1022.77z"/>
	<path fill="#8299CE" d="M245.38,1032.52c0,3.76-2.6,5.4-5.06,5.4c-2.75,0-4.87-2.02-4.87-5.23c0-3.4,2.23-5.4,5.04-5.4
		C243.4,1027.29,245.38,1029.41,245.38,1032.52z M237.31,1032.62c0,2.22,1.28,3.9,3.09,3.9c1.76,0,3.09-1.66,3.09-3.95
		c0-1.72-0.86-3.9-3.04-3.9S237.31,1030.69,237.31,1032.62z"/>
	<path fill="#8299CE" d="M256.21,1034.91c0,1.05,0.02,1.97,0.08,2.77h-1.64l-0.1-1.66h-0.04c-0.48,0.82-1.55,1.89-3.36,1.89
		c-1.6,0-3.51-0.88-3.51-4.45v-5.94h1.85v5.63c0,1.93,0.59,3.23,2.27,3.23c1.24,0,2.1-0.86,2.44-1.68c0.1-0.27,0.17-0.61,0.17-0.95
		v-6.24h1.85V1034.91z"/>
	<path fill="#8299CE" d="M261.11,1032.18h0.04c0.25-0.36,0.61-0.8,0.9-1.15l2.98-3.51h2.23l-3.93,4.18l4.47,5.98h-2.25l-3.51-4.87
		l-0.94,1.05v3.82h-1.83v-14.91h1.83V1032.18z"/>
	<path fill="#8299CE" d="M271.54,1024.66c0.02,0.63-0.44,1.13-1.18,1.13c-0.65,0-1.11-0.5-1.11-1.13c0-0.65,0.48-1.16,1.15-1.16
		C271.1,1023.51,271.54,1024.01,271.54,1024.66z M269.48,1037.68v-10.16h1.85v10.16H269.48z"/>
	<path fill="#8299CE" d="M273.29,1040.22c1.49-2.08,2.65-4.81,2.65-8.59c0-3.76-1.13-6.45-2.65-8.52h1.43
		c1.34,1.72,2.75,4.41,2.75,8.54c0,4.12-1.41,6.78-2.75,8.57H273.29z"/>
	<path fill="#8299CE" d="M284.81,1030.84c0-1.3-0.04-2.35-0.08-3.32h1.66l0.08,1.74h0.04c0.76-1.24,1.95-1.97,3.61-1.97
		c2.46,0,4.3,2.08,4.3,5.17c0,3.65-2.23,5.46-4.62,5.46c-1.34,0-2.52-0.59-3.13-1.6h-0.04v5.52h-1.83V1030.84z M286.64,1033.55
		c0,0.27,0.04,0.52,0.08,0.76c0.34,1.28,1.45,2.16,2.77,2.16c1.95,0,3.09-1.6,3.09-3.93c0-2.04-1.07-3.78-3.02-3.78
		c-1.26,0-2.44,0.9-2.79,2.29c-0.06,0.23-0.13,0.5-0.13,0.76V1033.55z"/>
	<path fill="#8299CE" d="M302.39,1037.68l-0.15-1.28h-0.06c-0.57,0.8-1.66,1.51-3.11,1.51c-2.06,0-3.11-1.45-3.11-2.92
		c0-2.46,2.18-3.8,6.11-3.78V1031c0-0.84-0.23-2.35-2.31-2.35c-0.94,0-1.93,0.29-2.65,0.76l-0.42-1.22c0.84-0.55,2.06-0.9,3.34-0.9
		c3.11,0,3.86,2.12,3.86,4.16v3.8c0,0.88,0.04,1.74,0.17,2.44H302.39z M302.12,1032.5c-2.02-0.04-4.3,0.32-4.3,2.29
		c0,1.2,0.8,1.76,1.74,1.76c1.32,0,2.16-0.84,2.46-1.7c0.06-0.19,0.1-0.4,0.1-0.59V1032.5z"/>
	<path fill="#8299CE" d="M309.03,1024.6v2.92h2.65v1.41h-2.65v5.48c0,1.26,0.36,1.97,1.39,1.97c0.48,0,0.84-0.06,1.07-0.13
		l0.08,1.39c-0.36,0.15-0.92,0.25-1.64,0.25c-0.86,0-1.55-0.27-1.99-0.78c-0.52-0.54-0.71-1.45-0.71-2.64v-5.54h-1.57v-1.41h1.57
		v-2.44L309.03,1024.6z"/>
	<path fill="#8299CE" d="M313.75,1022.77h1.85v6.34h0.04c0.29-0.52,0.76-0.99,1.32-1.3c0.55-0.31,1.2-0.53,1.89-0.53
		c1.36,0,3.55,0.84,3.55,4.35v6.05h-1.85v-5.84c0-1.64-0.61-3.02-2.35-3.02c-1.2,0-2.14,0.84-2.48,1.85
		c-0.1,0.25-0.13,0.53-0.13,0.88v6.13h-1.85V1022.77z"/>
	<path fill="#8299CE" d="M325.6,1040.03v-16.73h3.84v1.15h-2.41v14.42h2.41v1.16H325.6z"/>
	<path fill="#8299CE" d="M334.79,1025.76h-0.04l-2.37,1.28l-0.36-1.41l2.98-1.6h1.58v13.65h-1.79V1025.76z"/>
	<path fill="#8299CE" d="M349.7,1025.59h-5.21l-0.52,3.51c0.32-0.04,0.61-0.08,1.11-0.08c1.05,0,2.1,0.23,2.94,0.73
		c1.07,0.61,1.95,1.79,1.95,3.51c0,2.67-2.12,4.66-5.08,4.66c-1.49,0-2.75-0.42-3.4-0.84l0.46-1.41c0.57,0.34,1.68,0.76,2.92,0.76
		c1.74,0,3.23-1.13,3.23-2.96c-0.02-1.76-1.2-3.02-3.93-3.02c-0.78,0-1.39,0.08-1.89,0.15l0.88-6.55h6.53V1025.59z"/>
	<path fill="#8299CE" d="M355.62,1023.28v16.75h-3.84v-1.16h2.42v-14.45h-2.42v-1.15H355.62z"/>
</g>
<g>
	<path fill="none" stroke="#544E4A" stroke-miterlimit="10" d="M335.67,403.86c3.54,2.07,22.84,12.95,39.53,6.34
		c10.32-4.09,15.68-9.77,15.68-9.77c5.12-5.42,6.07-10.05,10.7-10.78c2.69-0.42,5.88,0.6,8.43,2.42"/>
	<g>
		<path fill="#544E4A" d="M408.85,391.25l0.87-3.13l0.11,0.03l1.78,4.53c0.82,1.39,1.65,2.77,2.47,4.16
			c-1.33-0.91-2.66-1.83-3.99-2.74l-4.4-2.07l-0.03-0.1L408.85,391.25z"/>
	</g>
</g>
<g>
	<path fill="#EE9CB0" d="M170.39,874.98c-1.53,2.06-2.65,4.79-2.65,8.59c0,3.74,1.15,6.43,2.65,8.53h-1.45
		c-1.32-1.74-2.75-4.43-2.75-8.53c0.02-4.14,1.43-6.82,2.75-8.59H170.39z"/>
	<path fill="#EE9CB0" d="M172.26,889.55c0.04-0.69,0.08-1.72,0.08-2.62v-12.28h1.83v6.38h0.04c0.65-1.13,1.83-1.87,3.46-1.87
		c2.52,0,4.3,2.1,4.28,5.19c0,3.63-2.29,5.44-4.56,5.44c-1.47,0-2.65-0.57-3.4-1.91h-0.06l-0.08,1.68H172.26z M174.17,885.48
		c0,0.23,0.04,0.46,0.08,0.67c0.36,1.28,1.43,2.16,2.77,2.16c1.93,0,3.09-1.58,3.09-3.91c0-2.04-1.05-3.78-3.02-3.78
		c-1.26,0-2.44,0.86-2.81,2.27c-0.04,0.21-0.1,0.46-0.1,0.76V885.48z"/>
	<path fill="#EE9CB0" d="M193.49,884.38c0,3.76-2.6,5.4-5.06,5.4c-2.75,0-4.87-2.02-4.87-5.23c0-3.4,2.23-5.4,5.04-5.4
		C191.52,879.16,193.49,881.28,193.49,884.38z M185.43,884.49c0,2.23,1.28,3.91,3.09,3.91c1.76,0,3.09-1.66,3.09-3.95
		c0-1.72-0.86-3.91-3.04-3.91S185.43,882.56,185.43,884.49z"/>
	<path fill="#EE9CB0" d="M204.6,874.64v12.28c0,0.9,0.02,1.93,0.08,2.62h-1.66l-0.08-1.76h-0.04c-0.57,1.13-1.81,1.99-3.46,1.99
		c-2.46,0-4.35-2.08-4.35-5.16c-0.02-3.38,2.08-5.46,4.56-5.46c1.55,0,2.6,0.73,3.07,1.55h0.04v-6.07H204.6z M202.75,883.52
		c0-0.23-0.02-0.55-0.08-0.78c-0.27-1.18-1.28-2.14-2.67-2.14c-1.91,0-3.04,1.68-3.04,3.93c0,2.06,1.01,3.76,3,3.76
		c1.24,0,2.37-0.82,2.71-2.21c0.06-0.25,0.08-0.5,0.08-0.8V883.52z"/>
	<path fill="#EE9CB0" d="M208.34,879.39l2.23,6c0.23,0.67,0.48,1.47,0.65,2.08h0.04c0.19-0.61,0.4-1.39,0.65-2.12l2.02-5.96h1.95
		l-2.77,7.24c-1.32,3.48-2.23,5.27-3.49,6.36c-0.9,0.8-1.81,1.11-2.27,1.2l-0.46-1.55c0.46-0.15,1.07-0.44,1.62-0.9
		c0.5-0.4,1.13-1.11,1.55-2.06c0.08-0.19,0.15-0.34,0.15-0.44c0-0.11-0.04-0.25-0.13-0.48l-3.76-9.36H208.34z"/>
	<path fill="#EE9CB0" d="M216.45,892.09c1.49-2.08,2.65-4.81,2.65-8.59c0-3.76-1.13-6.45-2.65-8.52h1.43
		c1.34,1.72,2.75,4.41,2.75,8.55c0,4.12-1.41,6.78-2.75,8.57H216.45z"/>
	<path fill="#EE9CB0" d="M227.98,882.71c0-1.3-0.04-2.35-0.08-3.32h1.66l0.08,1.74h0.04c0.76-1.24,1.95-1.97,3.61-1.97
		c2.46,0,4.3,2.08,4.3,5.16c0,3.65-2.23,5.46-4.62,5.46c-1.34,0-2.52-0.59-3.13-1.6h-0.04v5.52h-1.83V882.71z M229.8,885.41
		c0,0.27,0.04,0.53,0.08,0.76c0.34,1.28,1.45,2.16,2.77,2.16c1.95,0,3.09-1.6,3.09-3.93c0-2.04-1.07-3.78-3.02-3.78
		c-1.26,0-2.44,0.9-2.79,2.29c-0.06,0.23-0.13,0.5-0.13,0.76V885.41z"/>
	<path fill="#EE9CB0" d="M245.55,889.55l-0.15-1.28h-0.06c-0.57,0.8-1.66,1.51-3.11,1.51c-2.06,0-3.11-1.45-3.11-2.92
		c0-2.46,2.18-3.8,6.11-3.78v-0.21c0-0.84-0.23-2.35-2.31-2.35c-0.94,0-1.93,0.29-2.65,0.76l-0.42-1.22c0.84-0.55,2.06-0.9,3.34-0.9
		c3.11,0,3.86,2.12,3.86,4.16v3.8c0,0.88,0.04,1.74,0.17,2.44H245.55z M245.28,884.36c-2.02-0.04-4.3,0.31-4.3,2.29
		c0,1.2,0.8,1.76,1.74,1.76c1.32,0,2.16-0.84,2.46-1.7c0.06-0.19,0.1-0.4,0.1-0.59V884.36z"/>
	<path fill="#EE9CB0" d="M252.19,876.47v2.92h2.65v1.41h-2.65v5.48c0,1.26,0.36,1.97,1.39,1.97c0.48,0,0.84-0.06,1.07-0.13
		l0.08,1.39c-0.36,0.15-0.92,0.25-1.64,0.25c-0.86,0-1.55-0.27-1.99-0.78c-0.52-0.55-0.71-1.45-0.71-2.65v-5.54h-1.57v-1.41h1.57
		v-2.44L252.19,876.47z"/>
	<path fill="#EE9CB0" d="M256.91,874.64h1.85v6.34h0.04c0.29-0.53,0.76-0.99,1.32-1.3c0.55-0.32,1.2-0.52,1.89-0.52
		c1.36,0,3.55,0.84,3.55,4.35v6.05h-1.85v-5.84c0-1.64-0.61-3.02-2.35-3.02c-1.2,0-2.14,0.84-2.48,1.85
		c-0.1,0.25-0.13,0.52-0.13,0.88v6.13h-1.85V874.64z"/>
	<path fill="#EE9CB0" d="M268.76,891.9v-16.73h3.84v1.16h-2.41v14.42h2.41v1.15H268.76z"/>
	<path fill="#EE9CB0" d="M277.96,877.62h-0.04l-2.37,1.28l-0.36-1.41l2.98-1.6h1.57v13.65h-1.78V877.62z"/>
	<path fill="#EE9CB0" d="M292.51,877.2c-0.38-0.02-0.86,0-1.39,0.08c-2.9,0.48-4.43,2.6-4.75,4.85h0.06
		c0.65-0.86,1.78-1.57,3.3-1.57c2.41,0,4.12,1.74,4.12,4.41c0,2.5-1.7,4.81-4.54,4.81c-2.92,0-4.83-2.27-4.83-5.82
		c0-2.69,0.97-4.81,2.31-6.15c1.13-1.11,2.65-1.81,4.37-2.02c0.55-0.08,1.01-0.11,1.34-0.11V877.2z M291.98,885.08
		c0-1.95-1.11-3.13-2.81-3.13c-1.11,0-2.14,0.69-2.65,1.68c-0.13,0.21-0.21,0.48-0.21,0.82c0.04,2.25,1.07,3.9,3,3.9
		C290.91,888.35,291.98,887.03,291.98,885.08z"/>
	<path fill="#EE9CB0" d="M298.79,875.15v16.75h-3.84v-1.15h2.41V876.3h-2.41v-1.16H298.79z"/>
</g>
<g>
	<path fill="#65C8D0" d="M271.57,1185.62c-1.53,2.06-2.65,4.79-2.65,8.59c0,3.74,1.15,6.43,2.65,8.53h-1.45
		c-1.32-1.74-2.75-4.43-2.75-8.53c0.02-4.14,1.43-6.82,2.75-8.59H271.57z"/>
	<path fill="#65C8D0" d="M273.52,1185.29h1.85v14.91h-1.85V1185.29z"/>
	<path fill="#65C8D0" d="M279.51,1195.45c0.04,2.5,1.64,3.53,3.49,3.53c1.32,0,2.12-0.23,2.81-0.52l0.31,1.32
		c-0.65,0.29-1.76,0.63-3.38,0.63c-3.13,0-5-2.06-5-5.12s1.81-5.48,4.77-5.48c3.32,0,4.2,2.92,4.2,4.79c0,0.38-0.04,0.67-0.06,0.86
		H279.51z M284.92,1194.12c0.02-1.18-0.48-3-2.56-3c-1.87,0-2.69,1.72-2.83,3H284.92z"/>
	<path fill="#65C8D0" d="M297.75,1190.03c-0.04,0.73-0.08,1.55-0.08,2.79v5.9c0,2.33-0.46,3.76-1.45,4.64
		c-0.99,0.92-2.41,1.22-3.7,1.22c-1.22,0-2.56-0.29-3.38-0.84l0.46-1.41c0.67,0.42,1.72,0.8,2.98,0.8c1.89,0,3.28-0.99,3.28-3.55
		v-1.13h-0.04c-0.57,0.94-1.66,1.7-3.23,1.7c-2.52,0-4.33-2.14-4.33-4.96c0-3.44,2.25-5.4,4.58-5.4c1.76,0,2.73,0.92,3.17,1.76h0.04
		l0.08-1.53H297.75z M295.84,1194.04c0-0.31-0.02-0.59-0.1-0.84c-0.34-1.07-1.24-1.95-2.58-1.95c-1.76,0-3.02,1.49-3.02,3.84
		c0,1.99,1.01,3.65,3,3.65c1.13,0,2.16-0.71,2.56-1.89c0.1-0.32,0.15-0.67,0.15-0.99V1194.04z"/>
	<path fill="#65C8D0" d="M299.62,1202.73c1.49-2.08,2.65-4.81,2.65-8.59c0-3.76-1.13-6.45-2.65-8.52h1.43
		c1.34,1.72,2.75,4.41,2.75,8.55c0,4.12-1.41,6.78-2.75,8.57H299.62z"/>
	<path fill="#65C8D0" d="M311.15,1193.35c0-1.3-0.04-2.35-0.08-3.32h1.66l0.08,1.74h0.04c0.76-1.24,1.95-1.97,3.61-1.97
		c2.46,0,4.3,2.08,4.3,5.16c0,3.65-2.23,5.46-4.62,5.46c-1.34,0-2.52-0.59-3.13-1.6h-0.04v5.52h-1.83V1193.35z M312.98,1196.06
		c0,0.27,0.04,0.53,0.08,0.76c0.34,1.28,1.45,2.16,2.77,2.16c1.95,0,3.09-1.6,3.09-3.93c0-2.04-1.07-3.78-3.02-3.78
		c-1.26,0-2.44,0.9-2.79,2.29c-0.06,0.23-0.13,0.5-0.13,0.76V1196.06z"/>
	<path fill="#65C8D0" d="M328.73,1200.19l-0.15-1.28h-0.06c-0.57,0.8-1.66,1.51-3.11,1.51c-2.06,0-3.11-1.45-3.11-2.92
		c0-2.46,2.18-3.8,6.11-3.78v-0.21c0-0.84-0.23-2.35-2.31-2.35c-0.95,0-1.93,0.29-2.65,0.76l-0.42-1.22c0.84-0.55,2.06-0.9,3.34-0.9
		c3.11,0,3.86,2.12,3.86,4.16v3.8c0,0.88,0.04,1.74,0.17,2.44H328.73z M328.46,1195.01c-2.02-0.04-4.3,0.31-4.3,2.29
		c0,1.2,0.8,1.76,1.74,1.76c1.32,0,2.16-0.84,2.46-1.7c0.06-0.19,0.11-0.4,0.11-0.59V1195.01z"/>
	<path fill="#65C8D0" d="M335.37,1187.11v2.92h2.64v1.41h-2.64v5.48c0,1.26,0.36,1.97,1.38,1.97c0.48,0,0.84-0.06,1.07-0.13
		l0.08,1.39c-0.36,0.15-0.92,0.25-1.64,0.25c-0.86,0-1.55-0.27-1.99-0.78c-0.53-0.55-0.71-1.45-0.71-2.65v-5.54h-1.57v-1.41h1.57
		v-2.44L335.37,1187.11z"/>
	<path fill="#65C8D0" d="M340.09,1185.29h1.85v6.34h0.04c0.29-0.53,0.76-0.99,1.32-1.3c0.55-0.32,1.2-0.52,1.89-0.52
		c1.37,0,3.55,0.84,3.55,4.35v6.05h-1.85v-5.84c0-1.64-0.61-3.02-2.35-3.02c-1.2,0-2.14,0.84-2.48,1.85
		c-0.1,0.25-0.12,0.52-0.12,0.88v6.13h-1.85V1185.29z"/>
	<path fill="#65C8D0" d="M351.93,1202.54v-16.73h3.84v1.16h-2.41v14.42h2.41v1.15H351.93z"/>
	<path fill="#65C8D0" d="M361.13,1188.27h-0.04l-2.37,1.28l-0.36-1.41l2.98-1.6h1.58v13.65h-1.79V1188.27z"/>
	<path fill="#65C8D0" d="M376.75,1186.54v1.22l-5.94,12.43h-1.91l5.92-12.07v-0.04h-6.68v-1.53H376.75z"/>
	<path fill="#65C8D0" d="M381.96,1185.79v16.75h-3.84v-1.15h2.42v-14.45h-2.42v-1.16H381.96z"/>
</g>
<g>
</g>
<g>
</g>
<g>
</g>
<g>
</g>
<g>
</g>
<g>
</g>
<g>
</g>
</svg>
