<?xml version="1.0" encoding="utf-8"?>
<!-- Generator: Adobe Illustrator 25.2.0, SVG Export Plug-In . SVG Version: 6.00 Build 0)  -->
<svg version="1.0" id="Layer_1" xmlns="http://www.w3.org/2000/svg" xmlns:xlink="http://www.w3.org/1999/xlink" x="0px" y="0px"
	 viewBox="0 0 320 180" style="enable-background:new 0 0 320 180;" xml:space="preserve">
<style type="text/css">
	.st0{fill:#FFFFFF;}
</style>
<rect width="320" height="180"/>
<g>
	<path class="st0" d="M43.35,114.91v-21.4L27.42,64.49h7.41l7.11,13.92c1.95,3.82,3.44,6.88,5.01,10.4h0.15
		c1.42-3.29,3.14-6.58,5.09-10.4l7.26-13.92h7.41L49.94,93.44v21.47H43.35z"/>
	<path class="st0" d="M99.46,96.51c0,13.39-9.28,19.23-18.03,19.23c-9.8,0-17.36-7.18-17.36-18.63c0-12.12,7.93-19.23,17.96-19.23
		C92.43,77.88,99.46,85.43,99.46,96.51z M70.73,96.88c0,7.93,4.56,13.92,11,13.92c6.28,0,11-5.91,11-14.06
		c0-6.13-3.07-13.92-10.85-13.92C74.1,82.81,70.73,90,70.73,96.88z"/>
	<path class="st0" d="M138.06,105.04c0,3.74,0.08,7.03,0.3,9.88h-5.84l-0.37-5.91H132c-1.72,2.92-5.54,6.73-11.97,6.73
		c-5.69,0-12.49-3.14-12.49-15.86V78.7h6.58v20.05c0,6.88,2.09,11.52,8.08,11.52c4.41,0,7.48-3.07,8.68-5.99
		c0.37-0.97,0.6-2.17,0.6-3.37V78.7h6.58V105.04z"/>
	<path class="st0" d="M165.06,64.49h6.51v44.96h21.55v5.46h-28.06V64.49z"/>
	<path class="st0" d="M231.87,96.51c0,13.39-9.28,19.23-18.03,19.23c-9.8,0-17.36-7.18-17.36-18.63c0-12.12,7.93-19.23,17.96-19.23
		C224.84,77.88,231.87,85.43,231.87,96.51z M203.14,96.88c0,7.93,4.56,13.92,11,13.92c6.28,0,11-5.91,11-14.06
		c0-6.13-3.07-13.92-10.85-13.92C206.51,82.81,203.14,90,203.14,96.88z"/>
	<path class="st0" d="M239.27,108.18c1.95,1.27,5.39,2.62,8.68,2.62c4.79,0,7.03-2.39,7.03-5.39c0-3.14-1.87-4.86-6.73-6.66
		c-6.51-2.32-9.58-5.91-9.58-10.25c0-5.84,4.71-10.62,12.49-10.62c3.67,0,6.88,1.05,8.9,2.24l-1.65,4.79
		c-1.42-0.9-4.04-2.09-7.41-2.09c-3.89,0-6.06,2.24-6.06,4.94c0,2.99,2.17,4.34,6.88,6.13c6.28,2.39,9.5,5.54,9.5,10.92
		c0,6.36-4.94,10.85-13.54,10.85c-3.97,0-7.63-0.97-10.17-2.47L239.27,108.18z"/>
	<path class="st0" d="M273.46,98c0.15,8.9,5.84,12.57,12.42,12.57c4.71,0,7.56-0.82,10.03-1.87l1.12,4.71
		c-2.32,1.05-6.28,2.24-12.04,2.24c-11.15,0-17.81-7.33-17.81-18.25c0-10.92,6.43-19.53,16.98-19.53c11.82,0,14.96,10.4,14.96,17.06
		c0,1.35-0.15,2.39-0.22,3.07H273.46z M292.76,93.29c0.07-4.19-1.72-10.7-9.13-10.7c-6.66,0-9.58,6.13-10.1,10.7H292.76z"/>
</g>
<g>
</g>
<g>
</g>
<g>
</g>
<g>
</g>
<g>
</g>
<g>
</g>
</svg>
