<?xml version="1.0" encoding="utf-8"?>
<!-- Generator: Adobe Illustrator 25.2.0, SVG Export Plug-In . SVG Version: 6.00 Build 0)  -->
<svg version="1.0" id="Layer_1" xmlns="http://www.w3.org/2000/svg" xmlns:xlink="http://www.w3.org/1999/xlink" x="0px" y="0px"
	 viewBox="0 0 320 180" style="enable-background:new 0 0 320 180;" xml:space="preserve">
<style type="text/css">
	.st0{fill:#FFFFFF;}
</style>
<rect width="320" height="180"/>
<g>
	<path class="st0" d="M52.35,114.91v-21.4L36.42,64.49h7.41l7.11,13.92c1.95,3.82,3.44,6.88,5.01,10.4h0.15
		c1.42-3.29,3.14-6.58,5.09-10.4l7.26-13.92h7.41L58.94,93.44v21.47H52.35z"/>
	<path class="st0" d="M108.46,96.51c0,13.39-9.28,19.23-18.03,19.23c-9.8,0-17.36-7.18-17.36-18.63c0-12.12,7.93-19.23,17.96-19.23
		C101.43,77.88,108.46,85.43,108.46,96.51z M79.73,96.88c0,7.93,4.56,13.92,11,13.92c6.28,0,11-5.91,11-14.06
		c0-6.13-3.07-13.92-10.85-13.92C83.1,82.81,79.73,90,79.73,96.88z"/>
	<path class="st0" d="M147.06,105.04c0,3.74,0.08,7.03,0.3,9.88h-5.84l-0.37-5.91H141c-1.72,2.92-5.54,6.73-11.97,6.73
		c-5.69,0-12.49-3.14-12.49-15.86V78.7h6.58v20.05c0,6.88,2.09,11.52,8.08,11.52c4.41,0,7.48-3.07,8.68-5.99
		c0.37-0.97,0.6-2.17,0.6-3.37V78.7h6.58V105.04z"/>
	<path class="st0" d="M179.6,114.91l-12.79-50.42h6.88L179.68,90c1.5,6.28,2.84,12.57,3.74,17.43h0.15c0.82-5.01,2.39-11,4.11-17.51
		l6.73-25.44h6.81l6.13,25.59c1.42,5.98,2.77,11.97,3.52,17.28h0.15c1.05-5.54,2.47-11.15,4.04-17.43l6.66-25.44h6.66l-14.29,50.42
		h-6.81l-6.36-26.26c-1.57-6.43-2.62-11.37-3.29-16.46h-0.15c-0.9,5.01-2.02,9.95-3.89,16.46l-7.18,26.26H179.6z"/>
	<path class="st0" d="M240.57,68.53c0.08,2.24-1.57,4.04-4.19,4.04c-2.32,0-3.96-1.8-3.96-4.04c0-2.32,1.72-4.11,4.11-4.11
		C239,64.41,240.57,66.21,240.57,68.53z M233.24,114.91V78.7h6.58v36.21H233.24z"/>
	<path class="st0" d="M250.74,88.5c0-3.74-0.07-6.81-0.3-9.8h5.84l0.37,5.99h0.15c1.79-3.44,5.99-6.81,11.97-6.81
		c5.01,0,12.79,2.99,12.79,15.41v21.62h-6.58V94.04c0-5.84-2.17-10.7-8.38-10.7c-4.34,0-7.71,3.07-8.83,6.73
		c-0.3,0.82-0.45,1.94-0.45,3.07v21.77h-6.58V88.5z"/>
</g>
<g>
</g>
<g>
</g>
<g>
</g>
<g>
</g>
<g>
</g>
<g>
</g>
</svg>
