<?xml version="1.0" encoding="utf-8"?>
<!-- Generator: Adobe Illustrator 25.2.0, SVG Export Plug-In . SVG Version: 6.00 Build 0)  -->
<svg version="1.0" id="Layer_1" xmlns="http://www.w3.org/2000/svg" xmlns:xlink="http://www.w3.org/1999/xlink" x="0px" y="0px"
	 viewBox="0 0 320 320" style="enable-background:new 0 0 320 320;" xml:space="preserve">
<style type="text/css">
	.st0{fill:#010101;stroke:#070707;stroke-miterlimit:10;}
	.st1{fill:#D71F2B;}
	.st2{fill:#FFFFFF;}
</style>
<rect x="0.01" y="0.4" class="st0" width="319.61" height="319.6"/>
<path class="st1" d="M145.39,235.96l-10,23.08c18.85-1.92,36.54-3.08,52.31-3.08l-10.77-24.23
	C166.54,233.27,155.77,234.81,145.39,235.96L145.39,235.96z M240.39,227.89c-3.85,10-8.08,20-11.54,29.23
	c38.85,3.08,61.92,9.23,61.92,9.23l18.08-38.08C284.23,227.5,261.54,227.5,240.39,227.89z M10.78,281.35
	c-8.08,5.77-10.38,8.46-10.77,8.46c-0.38,0.38,17.69-6.54,45.38-13.85c26.15-6.92,39.23-9.23,53.46-11.54
	c-2.31-5.38-4.23-11.15-6.92-17.31C47.31,259.04,22.7,272.89,10.78,281.35z"/>
<g>
	<path class="st2" d="M162.7,63.28l46.92,121.92l87.31-171.15l-86.54,113.46L162.7,18.67l-48.08,108.84L28.08,14.05L115,185.2"/>
	<path class="st2" d="M240.39,227.89c9.23-23.46,18.08-46.54,22.69-58.46C279.23,127.51,320,14.05,320,14.05l-111.15,227.3
		c-12.31-31.15-45.77-113.84-45.77-113.84c-2.31,5.77-33.46,82.69-45.77,113.84L5.78,14.05c0,0,40.38,113.46,56.92,155.38
		c6.15,15.38,18.85,48.08,30.38,77.69l6.92,17.31c9.23,23.46,16.15,41.92,16.15,41.92l20.77-46.54l10-23.08l16.92-38.46l15,34.23
		l10.77,23.85l21.54,50c0,0,8.46-21.92,18.85-48.46C232.31,248.27,236.54,238.27,240.39,227.89z"/>
</g>
<path class="st2" d="M236.16,273.27c-2.31,0-4.23-1.92-4.23-4.23s1.92-4.23,4.23-4.23c2.31,0,4.23,1.92,4.23,4.23
	S238.46,273.27,236.16,273.27z M236.16,265.19c-1.92,0-3.46,1.54-3.46,3.85c0,1.92,1.54,3.85,3.46,3.85c1.92,0,3.46-1.54,3.46-3.85
	S237.69,265.19,236.16,265.19z M235.39,271.35h-0.77v-4.62h1.54c1.15,0,1.54,0.38,1.54,1.54c0,1.15-0.38,1.15-1.15,1.54l1.54,1.92
	h-0.77l-1.15-1.92h-0.77L235.39,271.35L235.39,271.35z M236.16,268.27c0.38,0,1.15,0,1.15-0.77c0-0.38-0.38-0.38-0.77-0.38h-0.77
	v1.54h0.38L236.16,268.27z"/>
<g>
</g>
<g>
</g>
<g>
</g>
<g>
</g>
<g>
</g>
<g>
</g>
</svg>
